<svg version="1.1" xmlns="http://www.w3.org/2000/svg" xmlns:xlink="http://www.w3.org/1999/xlink" width="565" height="349"><defs/><g><g transform="translate(-38,-14) scale(1,1)"><rect fill="#C0C0C0" stroke="none" x="343" y="215" width="257" height="145" opacity="0.2"/></g><g transform="translate(-38,-14) scale(1,1)"><rect fill="#ffffff" stroke="none" x="336" y="208" width="257" height="145"/></g><g transform="translate(-38,-14) scale(1,1)"><path fill="none" stroke="#000000" d="M 336 208 L 593 208 L 593 353 L 336 353 L 336 208 Z Z" stroke-miterlimit="10"/></g><g transform="translate(-38,-14) scale(1,1)"><path fill="none" stroke="#000000" d="M 336 233 L 593 233" stroke-miterlimit="10"/></g><g transform="translate(-38,-14) scale(1,1)"><path fill="none" stroke="#000000" d="M 336 316 L 593 316" stroke-miterlimit="10"/></g><g transform="translate(-38,-14) scale(1,1)"><g><path fill="none" stroke="none"/><text fill="#000000" stroke="none" font-family="Source Code Pro" font-size="13px" font-style="normal" font-weight="bold" text-decoration="none" x="444.5" y="227.5">Agent</text></g></g><g transform="translate(-38,-14) scale(1,1)"><g><path fill="none" stroke="none"/><text fill="#000000" stroke="none" font-family="Source Code Pro" font-size="13px" font-style="normal" font-weight="normal" text-decoration="none" x="341" y="250.5">+x: int</text></g></g><g transform="translate(-38,-14) scale(1,1)"><g><path fill="none" stroke="none"/><text fill="#000000" stroke="none" font-family="Source Code Pro" font-size="13px" font-style="normal" font-weight="normal" text-decoration="none" x="341" y="265.5">+y: int</text></g></g><g transform="translate(-38,-14) scale(1,1)"><g><path fill="none" stroke="none"/><text fill="#000000" stroke="none" font-family="Source Code Pro" font-size="13px" font-style="normal" font-weight="normal" text-decoration="none" x="341" y="280.5">-int: type</text></g></g><g transform="translate(-38,-14) scale(1,1)"><g><path fill="none" stroke="none"/><text fill="#000000" stroke="none" font-family="Source Code Pro" font-size="13px" font-style="normal" font-weight="normal" text-decoration="none" x="341" y="295.5">-float: satisfaction</text></g></g><g transform="translate(-38,-14) scale(1,1)"><g><path fill="none" stroke="none"/><text fill="#000000" stroke="none" font-family="Source Code Pro" font-size="13px" font-style="normal" font-weight="normal" text-decoration="none" x="341" y="310.5">-float: threshold</text></g></g><g transform="translate(-38,-14) scale(1,1)"><g><path fill="none" stroke="none"/><text fill="#000000" stroke="none" font-family="Source Code Pro" font-size="13px" font-style="normal" font-weight="normal" text-decoration="none" x="341" y="333.5">+show(radius: float): void</text></g></g><g transform="translate(-38,-14) scale(1,1)"><g><path fill="none" stroke="none"/><text fill="#000000" stroke="none" font-family="Source Code Pro" font-size="13px" font-style="normal" font-weight="normal" text-decoration="none" x="341" y="348.5">+checkNeighbour(): satisfaction</text></g></g><g transform="translate(-38,-14) scale(1,1)"><rect fill="#C0C0C0" stroke="none" x="55" y="31" width="256" height="175" opacity="0.2"/></g><g transform="translate(-38,-14) scale(1,1)"><rect fill="#ffffff" stroke="none" x="48" y="24" width="256" height="175"/></g><g transform="translate(-38,-14) scale(1,1)"><path fill="none" stroke="#000000" d="M 48 24 L 304 24 L 304 199 L 48 199 L 48 24 Z Z" stroke-miterlimit="10"/></g><g transform="translate(-38,-14) scale(1,1)"><path fill="none" stroke="#000000" d="M 48 49 L 304 49" stroke-miterlimit="10"/></g><g transform="translate(-38,-14) scale(1,1)"><path fill="none" stroke="#000000" d="M 48 132 L 304 132" stroke-miterlimit="10"/></g><g transform="translate(-38,-14) scale(1,1)"><g><path fill="none" stroke="none"/><text fill="#000000" stroke="none" font-family="Source Code Pro" font-size="13px" font-style="normal" font-weight="bold" text-decoration="none" x="108" y="43.5">Schelling's Model</text></g></g><g transform="translate(-38,-14) scale(1,1)"><g><path fill="none" stroke="none"/><text fill="#000000" stroke="none" font-family="Source Code Pro" font-size="13px" font-style="normal" font-weight="normal" text-decoration="none" x="53" y="66.5">+columns: int</text></g></g><g transform="translate(-38,-14) scale(1,1)"><g><path fill="none" stroke="none"/><text fill="#000000" stroke="none" font-family="Source Code Pro" font-size="13px" font-style="normal" font-weight="normal" text-decoration="none" x="53" y="81.5">+rows: int</text></g></g><g transform="translate(-38,-14) scale(1,1)"><g><path fill="none" stroke="none"/><text fill="#000000" stroke="none" font-family="Source Code Pro" font-size="13px" font-style="normal" font-weight="normal" text-decoration="none" x="53" y="96.5">+Agents: Agent array</text></g></g><g transform="translate(-38,-14) scale(1,1)"><g><path fill="none" stroke="none"/><text fill="#000000" stroke="none" font-family="Source Code Pro" font-size="13px" font-style="normal" font-weight="normal" text-decoration="none" x="53" y="111.5">+AgentsCount: int</text></g></g><g transform="translate(-38,-14) scale(1,1)"><g><path fill="none" stroke="none"/><text fill="#000000" stroke="none" font-family="Source Code Pro" font-size="13px" font-style="normal" font-weight="normal" text-decoration="none" x="53" y="126.5">+percentage: int</text></g></g><g transform="translate(-38,-14) scale(1,1)"><g><path fill="none" stroke="none"/><text fill="#000000" stroke="none" font-family="Source Code Pro" font-size="13px" font-style="normal" font-weight="normal" text-decoration="none" x="53" y="149.5">+show()</text></g></g><g transform="translate(-38,-14) scale(1,1)"><g><path fill="none" stroke="none"/><text fill="#000000" stroke="none" font-family="Source Code Pro" font-size="13px" font-style="normal" font-weight="normal" text-decoration="none" x="53" y="164.5">+playSound()</text></g></g><g transform="translate(-38,-14) scale(1,1)"><g><path fill="none" stroke="none"/><text fill="#000000" stroke="none" font-family="Source Code Pro" font-size="13px" font-style="normal" font-weight="normal" text-decoration="none" x="53" y="179.5">+update()</text></g></g><g transform="translate(-38,-14) scale(1,1)"><g><path fill="none" stroke="none"/><text fill="#000000" stroke="none" font-family="Source Code Pro" font-size="13px" font-style="normal" font-weight="normal" text-decoration="none" x="53" y="194.5">+moveAgent()</text></g></g><g transform="translate(-38,-14) scale(1,1)"><path fill="none" stroke="#000000" d="M 176 199 L 176 280 L 336 280" stroke-miterlimit="10"/></g><g transform="translate(-38,-14) scale(1,1)"><path fill="#000000" stroke="none" d="M 325.83732514237585 284.209517756016 L 336 280 L 325.83732514237585 275.790482243984 L 314 280"/></g><g transform="translate(-38,-14) scale(1,1)"><path fill="none" stroke="#000000" d="M 325.83732514237585 284.209517756016 L 336 280 L 325.83732514237585 275.790482243984 L 314 280 L 325.83732514237585 284.209517756016" stroke-miterlimit="10"/></g><g transform="translate(-38,-14) scale(1,1)"><g><path fill="none" stroke="none"/><text fill="#000000" stroke="none" font-family="Arial" font-size="13px" font-style="normal" font-weight="normal" text-decoration="none" x="161.5" y="271.5">+1..*</text></g></g></g></svg>